<svg width="287" height="288" viewBox="0 0 287 288" fill="none" xmlns="http://www.w3.org/2000/svg">
<g clip-path="url(#clip0_3_7183)">
<path d="M2.01562 286.875L2.56762 286.321L2.21345 285.968L5.01737 283.154L5.37154 283.507L8.17546 280.694L7.82129 280.341L10.6252 277.527L10.9794 277.88L13.7833 275.066L13.4292 274.713L16.2331 271.9L16.5872 272.252L19.3912 269.439L19.037 269.086L21.8409 266.272L22.1951 266.625L24.999 263.811L24.6448 263.458L27.4487 260.645L27.8029 260.998L30.6068 258.184L30.2527 257.831L33.0566 255.017L33.4108 255.37L36.2147 252.556L35.8605 252.203L38.6644 249.39L39.0186 249.743L41.8225 246.929L41.4684 246.576L44.2723 243.762L44.6265 244.115L47.4304 241.301L47.0762 240.949L49.8801 238.135L50.2343 238.488L53.0382 235.674L52.6841 235.321L55.488 232.507L55.8421 232.86L58.6461 230.047L58.2919 229.694L61.0958 226.88L61.45 227.233L64.2539 224.419L63.8997 224.066L66.7037 221.252L67.0578 221.605L69.8617 218.792L69.5076 218.439L72.3115 215.625L72.6657 215.978L75.4696 213.164L75.1154 212.811L77.9193 209.998L78.2735 210.35L81.0774 207.537L80.7233 207.184L83.5272 204.37L83.8814 204.723L86.6853 201.909L86.3311 201.556L89.135 198.743L89.4892 199.096L92.2931 196.282L91.9389 195.929L94.7429 193.115L95.097 193.468L97.9009 190.654L97.5468 190.301L100.351 187.488L100.705 187.841L103.508 185.027L103.154 184.674L105.958 181.86L106.312 182.213L109.116 179.4L108.762 179.047L111.566 176.233L111.92 176.586L114.724 173.772L114.37 173.419L117.174 170.605L117.528 170.958L120.332 168.145L119.978 167.792L122.782 164.978L123.136 165.331L125.94 162.517L125.585 162.164L128.389 159.351L128.744 159.703L131.547 156.89L131.193 156.537L133.997 153.723L134.351 154.076L137.155 151.262L136.801 150.909L139.605 148.096L139.959 148.449L142.763 145.635L142.409 145.282L145.213 142.468L145.567 142.821L148.371 140.007L148.017 139.655L150.821 136.841L151.175 137.194L153.979 134.38L153.625 134.027L156.429 131.213L156.783 131.566L159.587 128.753L159.232 128.4L162.036 125.586L162.391 125.939L165.194 123.125L164.84 122.772L167.644 119.958L167.998 120.311L170.802 117.498L170.448 117.145L173.252 114.331L173.606 114.684L176.41 111.87L176.056 111.517L178.86 108.704L179.214 109.057L182.018 106.243L181.664 105.89L184.468 103.076L184.822 103.429L187.626 100.615L187.272 100.262L190.076 97.4486L190.43 97.8015L193.234 94.9878L192.879 94.6348L195.683 91.8211L196.038 92.1741L198.842 89.3603L198.487 89.0074L201.291 86.1937L201.645 86.5466L204.449 83.7329L204.095 83.3799L206.899 80.5662L207.253 80.9191L210.057 78.1054L209.703 77.7525L212.507 74.9387L212.861 75.2917L215.665 72.4779L215.311 72.125L218.115 69.3113L218.469 69.6642L221.273 66.8505L220.919 66.4975L223.723 63.6838L224.077 64.0367L226.881 61.223L226.527 60.8701L229.331 58.0563L229.685 58.4093L232.489 55.5956L232.134 55.2426L234.938 52.4289L235.293 52.7818L238.096 49.9681L237.742 49.6151L240.546 46.8014L240.9 47.1543L243.704 44.3406L243.35 43.9877L246.154 41.174L246.508 41.5269L249.312 38.7132L248.958 38.3602L251.762 35.5465L252.116 35.8994L254.92 33.0857L254.566 32.7328L257.37 29.919L257.724 30.272L260.529 27.4582L260.174 27.1053L262.978 24.2916L263.332 24.6445L266.137 21.8308L265.783 21.4778L268.586 18.6641L268.94 19.017L271.745 16.2033L271.389 15.8504L274.193 13.0366L274.548 13.3896L277.352 10.5758L276.997 10.2229L279.801 7.40917L280.155 7.76211L282.96 4.94837L282.605 4.59544L285.409 1.78171L285.763 2.13464L286.311 1.58496V2.36794H286.811V6.35405H286.311V10.3402H286.811V14.3263H286.311V18.3124H286.811V22.2985H286.311V26.2846H286.811V30.2707H286.311V34.2568H286.811V38.243H286.311V42.2291H286.811V46.2152H286.311V50.2013H286.811V54.1874H286.311V58.1735H286.811V62.1596H286.311V66.1457H286.811V70.1318H286.311V74.118H286.811V78.1041H286.311V82.0902H286.811V86.0763H286.311V90.0624H286.811V94.0485H286.311V98.0346H286.811V102.021H286.311V106.007H286.811V109.993H286.311V113.979H286.811V117.965H286.311V121.951H286.811V125.938H286.311V129.924H286.811V133.91H286.311V137.896H286.811V141.882H286.311V145.868H286.811V149.854H286.311V153.84H286.811V157.826H286.311V161.813H286.811V165.799H286.311V169.785H286.811V173.771H286.311V177.757H286.811V181.743H286.311V185.729H286.811V189.715H286.311V193.701H286.811V197.688H286.311V201.674H286.811V205.66H286.311V209.646H286.811V213.632H286.311V217.618H286.811V221.604H286.311V225.59H286.811V229.577H286.311V233.563H286.811V237.549H286.311V241.535H286.811V245.521H286.311V249.507H286.811V253.493H286.311V257.479H286.811V261.465H286.311V265.452H286.811V269.438H286.311V273.424H286.811V277.41H286.311V281.396H286.811V285.382H286.311V286.875H284.826V287.375H280.853V286.875H276.88V287.375H272.908V286.875H268.936V287.375H264.965V286.875H260.992V287.375H257.019V286.875H253.047V287.375H249.075V286.875H245.103V287.375H241.13V286.875H237.158V287.375H233.186V286.875H229.214V287.375H225.242V286.875H221.269V287.375H217.297V286.875H213.325V287.375H209.353V286.875H205.38V287.375H201.408V286.875H197.436V287.375H193.464V286.875H189.492V287.375H185.519V286.875H181.547V287.375H177.575V286.875H173.603V287.375H169.63V286.875H165.658V287.375H161.686V286.875H157.714V287.375H153.742V286.875H149.769V287.375H145.797V286.875H141.825V287.375H137.853V286.875H133.88V287.375H129.908V286.875H125.936V287.375H121.964V286.875H117.992V287.375H114.019V286.875H110.047V287.375H106.075V286.875H102.103V287.375H98.1309V286.875H94.1586V287.375H90.1864V286.875H86.2142V287.375H82.242V286.875H78.2697V287.375H74.2975V286.875H70.3253V287.375H66.353V286.875H62.3808V287.375H58.4086V286.875H54.4363V287.375H50.4641V286.875H46.4919V287.375H42.5197V286.875H38.5474V287.375H34.5752V286.875H30.603V287.375H26.6307V286.875H22.6585V287.375H18.6863V286.875H14.7141V287.375H10.7418V286.875H6.7696V287.375H2.79735V286.875H2.01562Z" stroke="#353535" stroke-dasharray="4 4"/>
</g>
<defs>
<clipPath id="clip0_3_7183">
<rect width="286" height="287" fill="white" transform="translate(0.8125 0.375)"/>
</clipPath>
</defs>
</svg>
