<svg width="1440" height="588" viewBox="0 0 1440 588" fill="none" xmlns="http://www.w3.org/2000/svg">
<g clip-path="url(#clip0_3_7137)">
<g clip-path="url(#clip1_3_7137)">
<path d="M199.597 95.1133H0.433594V294.276H199.597V95.1133Z" stroke="#353535" stroke-width="0.833319"/>
<path d="M799.585 294.276H600.422V493.439H799.585V294.276Z" stroke="#353535" stroke-width="0.833319"/>
<path d="M999.581 94.2798H800.418V293.443H999.581V94.2798Z" stroke="#353535" stroke-width="0.833319"/>
<path d="M399.595 294.276H201.852L399.595 95.7056V294.276Z" stroke="#353535" stroke-width="0.833319"/>
<path d="M600.422 294.276H799.826L600.422 95.6997V294.276Z" stroke="#353535" stroke-width="0.833319"/>
<path d="M1399.58 293.443H1200.17L1399.58 492.019V293.443Z" stroke="#353535" stroke-width="0.833319"/>
<path d="M1199.58 193.861V293.443H1000.41V193.861C1000.41 138.864 1045 94.2798 1100 94.2798C1154.99 94.2798 1199.58 138.864 1199.58 193.861Z" stroke="#353535" stroke-width="0.833319"/>
<path d="M566.673 95.1133H599.589V294.276H400.426V261.36C400.426 169.544 474.857 95.1133 566.673 95.1133Z" stroke="#353535" stroke-width="0.833319"/>
<path d="M1166.66 295.109H1199.58V494.273H1000.41V461.356C1000.41 369.541 1074.85 295.109 1166.66 295.109Z" stroke="#353535" stroke-width="0.833319"/>
<path d="M599.589 460.523V493.439H400.426V294.276H433.342C525.158 294.276 599.589 368.708 599.589 460.523Z" stroke="#353535" stroke-width="0.833319"/>
<path d="M1200.72 293.443L1316.18 94.7964L1399.37 293.443H1200.72Z" stroke="#353535" stroke-width="0.833319"/>
<path d="M1599.57 94.2798H1400.41V293.443H1599.57V94.2798Z" stroke="#353535" stroke-width="0.833319"/>
</g>
<g clip-path="url(#clip2_3_7137)">
<path d="M-2.5 293.781H400" stroke="white" stroke-width="0.833333" stroke-miterlimit="10" stroke-linecap="round" stroke-dasharray="575 575"/>
<path d="M400.832 492.948H799.999" stroke="white" stroke-width="0.833333" stroke-miterlimit="10" stroke-linecap="round" stroke-dasharray="575 575"/>
<path d="M800 292.115H1200" stroke="white" stroke-width="0.833333" stroke-miterlimit="10" stroke-linecap="round" stroke-dasharray="575 575"/>
<path d="M400.418 293.365V493.365" stroke="white" stroke-width="0.833333" stroke-miterlimit="10" stroke-linecap="round" stroke-dasharray="575 575"/>
<path d="M800.418 292.531V493.365" stroke="white" stroke-width="0.833333" stroke-miterlimit="10" stroke-linecap="round" stroke-dasharray="575 575"/>
<path d="M1400.42 92.5312V292.531" stroke="white" stroke-width="0.833333" stroke-miterlimit="10" stroke-linecap="round" stroke-dasharray="575 575"/>
<path d="M1600 92.9482H1400" stroke="white" stroke-width="0.833333" stroke-miterlimit="10" stroke-linecap="round" stroke-dasharray="575 575"/>
<path d="M1199.64 291.955L1315.47 91.3262" stroke="white" stroke-width="0.833333" stroke-miterlimit="10" stroke-linecap="round" stroke-dasharray="575 575"/>
<path d="M1399.94 292.349L1315.45 91.0264" stroke="white" stroke-width="0.833333" stroke-miterlimit="10" stroke-linecap="round" stroke-dasharray="575 575"/>
</g>
</g>
<defs>
<clipPath id="clip0_3_7137">
<rect width="1440" height="586.656" fill="white" transform="translate(0 0.53125)"/>
</clipPath>
<clipPath id="clip1_3_7137">
<rect width="1599.97" height="586.656" fill="white" transform="translate(0.015625 0.53125)"/>
</clipPath>
<clipPath id="clip2_3_7137">
<rect width="1600" height="704" fill="white" transform="translate(0 -59.4688)"/>
</clipPath>
</defs>
</svg>
