<svg width="52" height="50" viewBox="0 0 52 50" fill="none" xmlns="http://www.w3.org/2000/svg">
<path d="M26.0012 48.5552C38.972 48.5552 49.4868 38.0403 49.4868 25.0696C49.4868 12.0988 38.972 1.58398 26.0012 1.58398C13.0305 1.58398 2.51562 12.0988 2.51562 25.0696C2.51562 38.0403 13.0305 48.5552 26.0012 48.5552Z" stroke="white" stroke-width="1.69968"/>
<path d="M14.6298 5.00775C14.9556 4.69975 15.6501 4.5001 16.9655 4.75219C18.2412 4.99665 19.8739 5.62892 21.7656 6.63385C25.538 8.63786 30.1628 12.028 34.723 16.338C39.2832 20.6481 42.8701 25.0191 44.9904 28.5846C46.0537 30.3725 46.7226 31.9157 46.9813 33.1214C47.248 34.3647 47.0367 35.021 46.7109 35.329C46.385 35.637 45.6906 35.8367 44.3751 35.5846C43.0994 35.3401 41.4667 34.7078 39.575 33.7029C35.8026 31.6989 31.1779 28.3088 26.6177 23.9987C22.0575 19.6887 18.4706 15.3176 16.3502 11.7522C15.287 9.96423 14.618 8.42107 14.3594 7.21539C14.0927 5.97208 14.3039 5.31574 14.6298 5.00775Z" stroke="white" stroke-width="1.69968"/>
<path d="M38.2504 4.99762C38.5686 5.29837 38.7778 5.95693 38.4883 7.22828C38.2085 8.45696 37.5074 10.0322 36.404 11.859C34.2035 15.5019 30.5054 19.9784 25.8227 24.4042C21.14 28.8301 16.4036 32.3253 12.5493 34.4051C10.6165 35.448 8.94982 36.1106 7.64983 36.3751C6.3047 36.6487 5.60792 36.4509 5.28971 36.1502C4.9715 35.8494 4.76225 35.1909 5.05175 33.9195C5.33153 32.6908 6.03266 31.1156 7.13611 29.2888C9.3366 25.6459 13.0346 21.1694 17.7174 16.7435C22.4001 12.3177 27.1364 8.82251 30.9908 6.74274C32.9236 5.69982 34.5902 5.03715 35.8902 4.77271C37.2354 4.4991 37.9322 4.69687 38.2504 4.99762Z" stroke="white" stroke-width="1.69968"/>
</svg>
